<?xml version="1.0" standalone="no"?>
<!DOCTYPE svg PUBLIC "-//W3C//DTD SVG 20010904//EN"
 "http://www.w3.org/TR/2001/REC-SVG-20010904/DTD/svg10.dtd">
<svg version="1.0" xmlns="http://www.w3.org/2000/svg"
 width="1080.000000pt" height="327.000000pt" viewBox="0 0 1080.000000 327.000000"
 preserveAspectRatio="xMidYMid meet">

<g transform="translate(0.000000,327.000000) scale(0.100000,-0.100000)"
fill="#000000" stroke="none">
<path d="M1358 2933 c-21 -2 -38 -9 -38 -14 0 -6 -18 -112 -40 -237 -22 -125
-49 -281 -60 -347 -12 -66 -32 -181 -45 -255 -116 -656 -118 -676 -90 -730 10
-19 31 -34 62 -47 42 -16 79 -18 308 -18 279 0 309 4 366 52 58 50 72 94 124
408 38 223 26 280 -64 305 -20 5 -152 10 -293 10 -141 0 -259 4 -262 9 -3 5 5
71 19 147 14 77 25 143 25 147 0 14 627 1 685 -13 124 -31 201 -83 242 -164
35 -67 42 -214 19 -361 -74 -470 -116 -599 -232 -705 -136 -124 -319 -158
-784 -147 -329 8 -427 31 -518 120 -88 86 -104 222 -57 490 13 78 61 351 105
607 97 555 103 587 98 600 -10 31 -268 -166 -365 -279 -143 -165 -223 -319
-280 -536 -32 -121 -43 -353 -23 -486 57 -390 311 -749 659 -932 107 -56 189
-87 311 -118 84 -21 118 -24 290 -24 188 1 199 2 314 33 356 96 652 335 815
658 90 179 131 357 131 569 0 152 -17 263 -60 394 -135 414 -470 725 -900 836
-88 22 -130 27 -265 30 -88 2 -177 1 -197 -2z m304 -935 c72 -33 142 -103 176
-176 23 -49 27 -70 27 -147 0 -82 -3 -97 -33 -157 -129 -262 -499 -264 -632
-3 -32 63 -35 75 -35 159 0 100 18 154 74 225 97 122 279 165 423 99z"/>
<path d="M1490 1676 c0 -14 5 -26 10 -26 6 0 10 7 10 15 0 8 0 18 1 22 0 4 -4
9 -10 11 -6 2 -11 -8 -11 -22z"/>
<path d="M3535 2878 c-4 -13 -12 -56 -40 -228 -13 -84 -34 -203 -122 -700 -69
-392 -83 -488 -83 -581 0 -232 111 -342 373 -369 128 -13 710 -13 849 0 240
23 382 109 469 284 54 111 104 326 131 565 30 275 -47 400 -282 457 -65 15
-133 18 -492 22 -343 3 -419 1 -423 -10 -10 -27 -54 -293 -49 -298 3 -3 180
-7 392 -10 430 -7 439 -8 469 -70 23 -46 21 -115 -6 -275 -39 -229 -74 -302
-164 -341 -38 -17 -78 -19 -382 -22 -223 -2 -357 0 -390 7 -67 15 -102 45
-117 103 -14 53 -11 72 127 863 14 83 37 213 51 290 35 194 52 314 46 320 -3
3 -83 5 -179 5 -130 0 -175 -3 -178 -12z"/>
<path d="M9625 2878 c-3 -7 -9 -42 -15 -78 -5 -36 -21 -130 -35 -210 -14 -80
-39 -221 -55 -315 -16 -93 -36 -210 -45 -260 -98 -555 -98 -555 -93 -669 8
-194 76 -276 274 -332 49 -14 124 -18 452 -21 387 -5 392 -5 392 15 0 11 9 64
19 118 11 55 22 116 25 136 l7 37 -343 3 c-315 3 -346 5 -382 22 -43 21 -75
78 -76 132 0 16 14 111 31 210 17 98 36 214 42 256 7 42 15 79 19 83 4 4 166
6 361 6 280 -2 356 1 364 11 9 11 38 164 51 271 l4 37 -362 0 -363 0 6 38 c12
73 36 219 56 332 10 63 21 131 23 150 l3 35 -178 3 c-137 2 -179 0 -182 -10z"/>
<path d="M5930 2320 c-89 -10 -153 -26 -235 -57 -57 -22 -84 -41 -141 -98 -39
-38 -80 -88 -91 -110 -33 -64 -72 -188 -89 -283 -8 -48 -29 -163 -45 -257 -16
-93 -39 -222 -50 -285 -11 -63 -31 -178 -44 -255 -13 -77 -33 -194 -45 -260
-12 -66 -26 -145 -31 -175 -5 -30 -11 -67 -15 -83 l-6 -27 185 0 184 0 6 38
c6 36 30 180 82 477 14 83 37 213 50 290 13 77 31 178 39 225 8 47 24 139 35
205 32 187 57 253 110 298 60 50 79 52 471 52 347 0 367 -1 399 -20 59 -35 75
-66 74 -143 -2 -80 -45 -328 -68 -392 -22 -63 -40 -86 -85 -115 -60 -38 -140
-45 -516 -45 l-340 0 -18 -117 c-10 -65 -22 -132 -26 -150 -5 -17 -5 -34 -2
-37 10 -10 712 -6 824 4 306 29 454 158 533 461 28 106 75 414 75 488 0 196
-80 299 -274 354 -65 18 -107 20 -476 22 -223 2 -434 0 -470 -5z"/>
<path d="M7995 2324 c-243 -32 -325 -64 -426 -171 -87 -90 -127 -186 -168
-398 -62 -314 -66 -464 -17 -567 43 -90 105 -135 242 -174 51 -15 129 -18 600
-22 l540 -4 12 54 c7 29 16 82 21 118 6 36 13 82 17 102 l6 37 -493 3 c-461 3
-497 4 -532 22 -49 24 -77 78 -77 146 l0 50 695 0 695 0 10 23 c4 12 16 65 25
117 9 52 20 119 25 149 15 82 12 211 -6 271 -37 123 -115 189 -273 227 -53 12
-143 16 -466 18 -220 2 -413 1 -430 -1z m723 -328 c49 -17 62 -29 80 -69 13
-31 15 -72 6 -129 l-7 -38 -513 0 c-443 0 -514 2 -514 15 0 26 48 146 66 167
31 35 104 61 189 69 44 4 208 6 365 4 227 -3 294 -6 328 -19z"/>
<path d="M7346 845 c-21 -7 -45 -20 -52 -27 -27 -28 -54 -136 -54 -216 l0 -78
38 -19 c55 -27 291 -35 315 -11 9 10 17 26 17 37 0 18 -8 19 -128 19 -115 0
-131 2 -146 19 -14 16 -16 26 -9 48 l10 28 198 2 c108 1 199 4 201 6 8 8 22
135 17 160 -4 20 -14 29 -42 37 -55 15 -318 12 -365 -5z m314 -84 c0 -62 2
-61 -166 -61 -169 0 -170 0 -139 60 l16 30 144 0 145 0 0 -29z"/>
<path d="M7950 848 c-73 -20 -96 -66 -125 -244 -22 -132 -22 -130 46 -118 29
5 26 -3 49 154 14 88 32 127 66 140 14 6 67 10 119 10 75 0 97 -3 116 -19 24
-19 24 -33 -7 -247 l-6 -41 43 6 43 6 17 79 c26 118 32 206 17 236 -8 14 -29
30 -48 37 -42 14 -280 15 -330 1z"/>
<path d="M8533 849 c-52 -15 -79 -58 -103 -165 -39 -170 -15 -195 198 -202
123 -4 137 -3 149 14 7 10 13 26 13 36 0 16 -11 18 -121 18 -66 0 -129 5 -140
10 -13 7 -19 21 -19 44 0 44 6 46 225 46 l181 0 12 58 c17 82 15 106 -9 128
-19 17 -39 19 -188 21 -91 1 -180 -2 -198 -8z m312 -70 c4 -6 4 -26 1 -45 l-7
-34 -156 0 -155 0 6 32 c11 56 16 58 167 58 87 0 140 -4 144 -11z"/>
<path d="M9139 848 c-61 -16 -89 -55 -114 -162 -13 -52 -26 -119 -30 -149 l-7
-54 42 3 c23 1 44 4 46 7 3 2 13 54 23 116 11 61 28 125 38 143 18 31 23 33
81 36 40 2 62 7 62 15 0 7 3 22 6 35 6 21 4 22 -52 21 -33 -1 -75 -5 -95 -11z"/>
<path d="M9436 850 c-52 -16 -74 -50 -92 -147 -31 -159 -14 -173 205 -173 77
0 146 -3 155 -6 11 -4 14 -14 10 -33 -12 -49 -18 -51 -165 -51 -130 0 -139 -1
-139 -19 0 -11 -3 -27 -6 -36 -6 -16 6 -17 157 -13 182 4 197 9 223 68 15 33
54 226 63 316 4 33 0 46 -20 70 l-25 29 -169 2 c-92 1 -181 -2 -197 -7z m304
-78 c22 -18 23 -19 8 -93 l-14 -74 -137 -3 c-152 -3 -177 4 -177 46 0 43 20
102 41 123 17 17 34 19 138 19 100 0 122 -3 141 -18z"/>
<path d="M9962 823 c-6 -21 -16 -76 -22 -122 -21 -154 -9 -164 210 -171 l155
-5 -2 -34 c-1 -18 -7 -38 -15 -42 -7 -5 -72 -9 -144 -9 l-132 0 -4 -35 -4 -35
136 0 c74 0 152 5 172 11 43 11 88 68 88 110 0 14 11 80 24 145 13 66 27 143
31 172 l7 52 -40 0 c-37 0 -41 -3 -50 -32 -6 -18 -15 -69 -22 -113 -18 -127
-1 -115 -159 -115 -124 0 -140 2 -156 20 -18 20 -19 12 15 198 l8 42 -43 0
c-40 0 -42 -2 -53 -37z"/>
</g>
</svg>
